<svg xmlns="http://www.w3.org/2000/svg" viewBox="0 0 48 48" width="48" height="48">
  <path fill="#4285F4" d="M24 9.5c3.9 0 6.5 1.7 8 3.1l5.9-5.9C34.9 3 30.9 1.5 24 1.5 14.9 1.5 7.6 6.4 4.1 13.6l6.9 5.4C12.9 15 17.9 9.5 24 9.5z"/>
  <path fill="#34A853" d="M46.5 24.5c0-1.6-.1-2.7-.4-3.9H24v7.4h12.6c-.5 2.5-2 4.6-4.3 6l6.9 5.4c4-3.7 6.3-9.2 6.3-14.9z"/>
  <path fill="#FBBC05" d="M10.9 28.9c-.6-1.6-.9-3.3-.9-4.9s.3-3.3.9-4.9l-6.9-5.4C1.6 17 0.5 20.4 0.5 24s1.1 7 3.5 10.3l6.9-5.4z"/>
  <path fill="#EA4335" d="M24 46.5c6.9 0 11-2.8 14.6-6.9l-6.9-5.4c-2 1.4-4.6 2.3-7.7 2.3-6.1 0-11.1-4.5-12.9-10.5l-6.9 5.4C7.6 41.6 14.9 46.5 24 46.5z"/>
</svg>